<?xml version="1.0" standalone="no"?>
<!DOCTYPE svg PUBLIC "-//W3C//DTD SVG 20010904//EN"
 "http://www.w3.org/TR/2001/REC-SVG-20010904/DTD/svg10.dtd">
<svg version="1.0" xmlns="http://www.w3.org/2000/svg"
 width="900.000000pt" height="780.000000pt" viewBox="0 0 900.000000 780.000000"
 preserveAspectRatio="xMidYMid meet">
<metadata>
Created by potrace 1.16, written by Peter Selinger 2001-2019
</metadata>
<g transform="translate(0.000000,780.000000) scale(0.100000,-0.100000)"
fill="#000000" stroke="none">
<path d="M6955 5443 c-11 -2 -144 -28 -295 -58 -1059 -208 -1209 -238 -1248
-257 -55 -26 -96 -76 -117 -146 -18 -55 -18 -58 6 -181 l25 -126 -216 -6
c-118 -4 -258 -12 -310 -18 -364 -43 -721 -145 -1005 -286 -49 -24 -92 -41
-96 -37 -4 4 -17 61 -29 127 -25 132 -42 174 -92 222 -43 42 -96 63 -156 63
-44 0 -314 -51 -1259 -239 -319 -64 -357 -78 -406 -148 -51 -75 -55 -117 -24
-271 15 -75 63 -316 106 -535 88 -442 92 -453 178 -504 89 -52 82 -53 587 47
1017 201 1093 217 1131 240 50 31 92 91 105 153 11 48 8 74 -44 337 -30 157
-57 296 -58 309 -3 20 9 29 92 72 254 131 564 225 925 280 119 19 605 40 605
27 0 -16 123 -620 131 -647 15 -46 75 -110 124 -132 61 -28 123 -23 402 32
1236 244 1255 248 1295 274 50 33 95 104 104 163 5 36 -13 147 -91 541 -54
273 -104 518 -112 544 -16 55 -73 119 -126 141 -40 16 -104 26 -132 19z m104
-175 c10 -25 211 -1045 211 -1071 0 -8 -3 -18 -8 -20 -8 -6 -264 -58 -797
-162 -214 -42 -477 -94 -584 -116 -136 -27 -198 -35 -207 -28 -15 12 -19 33
-135 622 -79 400 -90 470 -78 481 8 7 262 62 564 121 303 60 645 128 760 151
252 51 262 51 274 22z m-3582 -686 c17 -10 228 -1091 216 -1103 -9 -9 -400
-88 -1295 -264 -153 -30 -284 -52 -293 -49 -8 4 -17 16 -20 28 -20 91 -205
1046 -205 1059 0 10 10 22 23 27 12 5 276 59 587 120 311 61 651 129 755 150
209 42 215 43 232 32z"/>
<path d="M6332 4710 c-151 -41 -278 -135 -330 -247 -29 -64 -44 -205 -23 -226
7 -7 10 11 10 64 0 41 5 89 10 107 29 97 122 196 234 247 103 47 166 58 300
53 112 -4 119 -6 201 -46 94 -47 152 -103 189 -184 12 -26 25 -48 29 -48 12 0
10 7 -17 63 -44 93 -133 169 -244 209 -85 30 -263 34 -359 8z"/>
<path d="M2795 4061 c-203 -33 -362 -135 -431 -276 -25 -52 -29 -71 -29 -147
0 -48 5 -91 10 -97 7 -7 10 22 10 87 0 86 3 103 28 154 90 184 380 304 613
255 171 -37 265 -120 330 -292 6 -18 8 -18 11 -3 5 22 -36 116 -73 163 -86
113 -298 183 -469 156z"/>
<path d="M7285 2197 c-28 -13 -270 -164 -1219 -759 l-348 -218 -40 36 c-22 20
-70 50 -107 68 -61 29 -74 31 -171 31 -98 0 -109 -2 -171 -32 -101 -50 -183
-146 -222 -264 -5 -17 4 -18 -607 96 -107 20 -276 52 -375 70 -99 18 -292 54
-430 80 -137 26 -297 55 -355 66 -137 26 -172 20 -227 -37 -80 -82 -84 -164
-25 -499 23 -126 48 -273 57 -325 58 -347 66 -374 125 -423 40 -34 119 -57
194 -57 51 1 80 9 176 51 63 28 129 55 145 61 17 6 32 14 35 18 3 4 28 14 55
23 28 8 82 29 120 46 39 17 169 72 290 122 121 50 227 97 235 104 8 7 29 17
45 21 35 8 168 61 410 164 94 40 175 74 182 77 6 2 36 -18 66 -45 77 -70 148
-102 241 -109 101 -8 183 11 255 57 71 46 113 96 148 178 l28 65 385 -7 c212
-3 572 -9 800 -13 594 -11 558 -12 612 15 103 49 159 124 159 215 0 49 -52
320 -87 452 -9 33 -20 83 -24 110 -4 28 -16 86 -25 130 -9 44 -19 100 -21 125
-4 61 -40 175 -70 221 -38 61 -85 90 -151 95 -37 3 -69 -1 -88 -9z"/>
</g>
</svg>
